<svg xmlns="http://www.w3.org/2000/svg" xmlns:xlink="http://www.w3.org/1999/xlink" width="64" zoomAndPan="magnify" viewBox="0 0 48 50.249999" height="67" preserveAspectRatio="xMidYMid meet" version="1.0"><defs><clipPath id="5acec7656b"><path d="M 1 0 L 46.769531 0 L 46.769531 49.511719 L 1 49.511719 Z M 1 0 " clip-rule="nonzero"/></clipPath></defs><g clip-path="url(#5acec7656b)"><path fill="#000000" d="M 19.289062 31.375 L 10.71875 22.808594 L 10.71875 18.132812 L 33.476562 40.890625 C 36.496094 43.910156 41.457031 43.910156 44.476562 40.890625 C 47.496094 37.871094 47.496094 32.910156 44.476562 29.890625 L 40.191406 25.589844 L 40.191406 7.167969 C 41.523438 6.597656 42.46875 5.53125 42.46875 3.726562 C 42.46875 1.921875 40.796875 -0.015625 38.722656 -0.015625 C 36.664062 -0.015625 34.976562 1.921875 34.976562 3.726562 C 34.976562 5.53125 35.921875 6.597656 37.253906 7.167969 L 37.253906 22.671875 L 30.742188 16.160156 C 30.910156 15.738281 31.011719 15.265625 31.011719 14.777344 C 31.011719 12.71875 29.34375 11.03125 27.269531 11.03125 C 25.210938 11.03125 23.523438 12.703125 23.523438 14.777344 C 23.523438 16.835938 25.195312 18.523438 27.269531 18.523438 C 27.773438 18.523438 28.246094 18.421875 28.703125 18.234375 L 37.273438 26.804688 L 37.273438 31.476562 L 23.996094 18.203125 L 14.515625 8.722656 C 11.496094 5.703125 6.535156 5.703125 3.515625 8.722656 C 0.496094 11.742188 0.496094 16.699219 3.515625 19.71875 L 7.800781 24.023438 L 7.800781 42.324219 C 6.46875 42.898438 5.523438 43.960938 5.523438 45.765625 C 5.523438 47.570312 7.195312 49.511719 9.269531 49.511719 C 11.328125 49.511719 13.015625 47.570312 13.015625 45.765625 C 13.015625 43.960938 12.070312 42.898438 10.738281 42.324219 L 10.738281 26.941406 L 17.25 33.453125 C 17.078125 33.875 16.976562 34.34375 16.976562 34.835938 C 16.976562 36.894531 18.648438 38.578125 20.722656 38.578125 C 22.78125 38.578125 24.46875 36.910156 24.46875 34.835938 C 24.46875 32.777344 22.796875 31.089844 20.722656 31.089844 C 20.21875 31.089844 19.746094 31.191406 19.289062 31.375 Z M 23.996094 27.277344 L 11.007812 14.289062 C 10.464844 13.75 9.671875 13.597656 8.964844 13.882812 C 8.257812 14.171875 7.800781 14.84375 7.800781 15.605469 L 7.800781 19.871094 L 5.574219 17.644531 C 3.683594 15.753906 3.683594 12.652344 5.574219 10.78125 C 7.464844 8.890625 10.550781 8.890625 12.441406 10.78125 L 36.984375 35.324219 C 37.523438 35.863281 38.316406 36.015625 39.027344 35.730469 C 39.734375 35.441406 40.191406 34.765625 40.191406 34.007812 L 40.191406 29.742188 L 42.417969 31.96875 C 44.304688 33.855469 44.304688 36.960938 42.417969 38.832031 C 40.527344 40.722656 37.441406 40.722656 35.550781 38.832031 Z M 38.722656 4.960938 C 38.046875 4.960938 37.492188 4.402344 37.492188 3.726562 C 37.492188 3.054688 38.046875 2.496094 38.722656 2.496094 C 39.398438 2.496094 39.953125 3.054688 39.953125 3.726562 C 39.953125 4.402344 39.398438 4.960938 38.722656 4.960938 Z M 28.246094 15.535156 L 28.011719 15.773438 C 27.808594 15.925781 27.539062 16.027344 27.269531 16.027344 C 26.59375 16.027344 26.035156 15.46875 26.035156 14.792969 C 26.035156 14.121094 26.59375 13.5625 27.269531 13.5625 C 27.941406 13.5625 28.5 14.121094 28.5 14.792969 C 28.5 15.082031 28.398438 15.335938 28.246094 15.535156 Z M 9.253906 44.550781 C 9.925781 44.550781 10.484375 45.109375 10.484375 45.78125 C 10.484375 46.457031 9.925781 47.015625 9.253906 47.015625 C 8.578125 47.015625 8.019531 46.457031 8.019531 45.78125 C 8.019531 45.109375 8.578125 44.550781 9.253906 44.550781 Z M 19.726562 34.09375 L 19.964844 33.855469 C 20.167969 33.703125 20.4375 33.601562 20.707031 33.601562 C 21.382812 33.601562 21.9375 34.160156 21.9375 34.835938 C 21.9375 35.507812 21.382812 36.066406 20.707031 36.066406 C 20.03125 36.066406 19.476562 35.507812 19.476562 34.835938 C 19.476562 34.546875 19.574219 34.296875 19.726562 34.09375 Z M 19.726562 34.09375 " fill-opacity="1" fill-rule="evenodd"/></g></svg>